<?xml version="1.0" standalone="no"?><!DOCTYPE svg PUBLIC "-//W3C//DTD SVG 1.1//EN" "http://www.w3.org/Graphics/SVG/1.1/DTD/svg11.dtd"><svg t="1579446111641" class="icon" viewBox="0 0 1024 1024" version="1.1" xmlns="http://www.w3.org/2000/svg" p-id="4084" xmlns:xlink="http://www.w3.org/1999/xlink" width="200" height="200"><defs><style type="text/css"></style></defs><path d="M512 151.35669363c-201.62932277 0-365.11666775 163.48734499-365.15360177 365.15360176 0 201.73722803 163.48734499 365.18981158 365.15360177 365.18981159 201.70101821 0 365.18981158-163.48734499 365.18981158-365.18981159 0-201.66553259-163.45113517-365.15360177-365.18981158-365.15360176z m161.492908 360.39852797c1.23403072 5.84209264 1.8510461 12.48369813 1.85104608 19.95957792 0 9.14587676-0.61701535 16.83901548-1.85104608 23.08086456H553.84406996v54.8716396h119.64883804c1.23403072 5.80660701 1.8510461 12.44821251 1.85104608 19.92409229 0 9.18208658-0.61701535 16.83901548-1.85104608 23.08086456H553.84406996v97.83893823c-5.04475236 0.79878866-10.19740999 1.45201385-15.60498476 1.88725591-5.40685057 0.43524205-10.84991098 0.65322518-16.22127592 0.65322518-5.40685057 0-10.77821553-0.21725894-16.18506611-0.65322518-5.37136495-0.43524205-10.59716642-1.05153323-15.60498477-1.88725591v-97.83893823H375.55052889c-1.66999698-5.00854253-2.50354708-12.04773188-2.50354707-21.19360865 0-3.77451182 0.21725894-7.47587978 0.61701536-11.25039159 0.43524205-3.73830199 1.05153323-7.25789666 1.8872559-10.56095661h114.67722952v-54.8716396H375.55125308c-1.66999698-5.00854253-2.50354708-12.04773188-2.50354706-21.19360865 0-3.73830199 0.21725894-7.47587978 0.61701535-11.2503916 0.43524205-3.73830199 1.05153323-7.25789666 1.8872559-10.59716642h89.74604309L350.62079083 309.83549607c5.40685057-0.83427429 11.32281125-1.45201385 17.74643362-1.85104608 6.49531782-0.43524205 12.62926161-0.65322518 18.43586863-0.65322519s11.82974874 0.21725894 18.07304619 0.61701537 11.82974874 1.01677179 16.83901549 1.85104607L523.90868616 498.03749275l100.37869513-188.23820651a199.79710579 199.79710579 0 0 1 16.5109545-1.85104607c5.55241406-0.39830804 11.32281125-0.61701535 17.12941825-0.61701538s11.61248982 0.21725894 17.41909684 0.61701538c5.84209264 0.39830804 11.25039159 1.01677179 16.22127592 1.85104607L578.77742899 511.71828759h94.71765159zM500.42299581 652.63532651z" fill="" p-id="4085"></path></svg>