<?xml version="1.0" standalone="no"?><!DOCTYPE svg PUBLIC "-//W3C//DTD SVG 1.1//EN" "http://www.w3.org/Graphics/SVG/1.1/DTD/svg11.dtd"><svg t="1583485955048" class="icon" viewBox="0 0 1024 1024" version="1.1" xmlns="http://www.w3.org/2000/svg" p-id="1483" xmlns:xlink="http://www.w3.org/1999/xlink" width="200" height="200"><defs><style type="text/css"></style></defs><path d="M748.68622222 214.24810667h-88.89230222v-68.26666667H817.53884445l2.64419555-2.62144 2.59868445 2.62144h17.92c18.85070222 0 34.13333333 15.28149333 34.13333333 34.13333333v180.90666667h-68.26666667v-108.02858667L653.26307555 404.992a34.13333333 34.13333333 0 0 1-35.44746666 7.93031111L414.27626667 340.69845333 201.24558222 486.93475555l-38.63552-56.28131555 227.36896-156.08035555a34.13333333 34.13333333 0 0 1 30.73137778-4.02773334l199.72096 70.86648889 128.25486222-127.16373333zM442.0608 811.93870222h144.74012445V551.31704889h68.26666666v260.62165333h151.66805334V455.32046222h68.26666666v390.75157333c0 18.85184-15.28149333 34.13333333-34.13333333 34.13333334H182.04444445c-18.85184 0-34.13333333-15.28149333-34.13333334-34.13333334V628.06926222h68.26666667v183.86944h157.61635555V459.22645333h68.26666667v352.71224889z" p-id="1484"></path></svg>