<?xml version="1.0" standalone="no"?><!DOCTYPE svg PUBLIC "-//W3C//DTD SVG 1.1//EN" "http://www.w3.org/Graphics/SVG/1.1/DTD/svg11.dtd"><svg t="1583378276925" class="icon" viewBox="0 0 1024 1024" version="1.1" xmlns="http://www.w3.org/2000/svg" p-id="3880" xmlns:xlink="http://www.w3.org/1999/xlink" width="200" height="200"><defs><style type="text/css"></style></defs><path d="M580.7159375 583.660625c12.6778125 0 22.9321875-10.2609375 22.9321875-22.9396875s-10.254375-22.9359375-22.9321875-22.9359375h-13.9415625l16.4503125-27.5175c6.493125-10.8759375 2.955-24.9571875-7.906875-31.475625-10.8796875-6.474375-24.9459375-2.9409375-31.471875 7.906875l-30.545625 51.08625h-3.073125l-30.538125-51.08625c-6.5221875-10.8478125-20.5884375-14.38125-31.464375-7.906875-10.876875 6.508125-14.4215625 20.5959375-7.918125 31.475625l16.4503125 27.5175h-13.966875c-12.6675 0-22.9396875 10.2571875-22.9396875 22.9359375s10.2684375 22.9396875 22.9396875 22.9396875h46.014375v28.674375h-46.014375c-12.6675 0-22.9396875 10.2571875-22.9396875 22.9359375s10.2684375 22.9396875 22.9396875 22.9396875h46.014375v99.4115625c0 12.6675 10.2684375 22.9396875 22.9359375 22.9396875 12.6703125 0 22.93875-10.2721875 22.93875-22.9396875v-99.4125h46.0359375c12.6778125 0 22.9321875-10.26 22.9321875-22.9396875 0-12.6778125-10.254375-22.9359375-22.9321875-22.9359375h-46.0359375v-28.674375h46.036875z m0 0" p-id="3881"></path><path d="M725.4715625 128.5625H298.011875C249.0275 128.5625 209.1875 168.41375 209.1875 217.409375v590.3128125c0 48.9628125 39.84 88.839375 88.824375 88.839375h427.4596875c48.965625 0 88.824375-39.8765625 88.824375-88.839375V217.409375c0-48.995625-39.8578125-88.846875-88.824375-88.846875z m-427.4596875 45.875625h427.4596875c23.675625 0 42.9421875 19.276875 42.9421875 42.9675v14.9484375c-0.48 0.9009375-0.9965625 1.7765625-1.3696875 2.754375-29.8790625 79.2853125-134.9634375 134.6521875-255.5709375 134.6521875-119.7478125 0-224.6521875-54.8765625-255.1209375-133.42125-0.3478125-0.9046875-0.8390625-1.7025-1.2890625-2.5378125V217.409375c0.0065625-23.694375 19.273125-42.97125 42.94875-42.97125z m427.4596875 676.24125H298.011875c-23.675625 0-42.9421875-19.2628125-42.9421875-42.95625v-490.378125C311.5109375 377.3928125 406.98125 415.64375 511.473125 415.64375c105.0328125 0 200.625-38.4375 256.940625-98.825625v490.905c0 23.6934375-19.2665625 42.95625-42.9421875 42.95625z m0 0" p-id="3882"></path></svg>