<?xml version="1.0" standalone="no"?><!DOCTYPE svg PUBLIC "-//W3C//DTD SVG 1.1//EN" "http://www.w3.org/Graphics/SVG/1.1/DTD/svg11.dtd"><svg t="1583913747648" class="icon" viewBox="0 0 1024 1024" version="1.1" xmlns="http://www.w3.org/2000/svg" p-id="1513" xmlns:xlink="http://www.w3.org/1999/xlink" width="200" height="200"><defs><style type="text/css"></style></defs><path d="M512 0C229.376 0 0 229.376 0 512s229.376 512 512 512 512-229.376 512-512S794.624 0 512 0z m202.24 683.52c10.24 10.24 10.24 26.112 0 36.352s-26.112 10.24-36.352 0l-167.936-167.936-167.424 167.424c-10.24 10.24-26.112 10.24-36.352 0s-10.24-26.112 0-36.352l167.424-167.424-168.96-169.984c-10.24-10.24-10.24-26.112 0-36.352s26.112-10.24 36.352 0l169.472 169.472 169.984-169.984c10.24-10.24 26.112-10.24 36.352 0s10.24 26.112 0 36.352l-169.984 169.984 167.424 168.448z" fill="#CD292A" p-id="1514"></path></svg>