<?xml version="1.0" standalone="no"?><!DOCTYPE svg PUBLIC "-//W3C//DTD SVG 1.1//EN" "http://www.w3.org/Graphics/SVG/1.1/DTD/svg11.dtd"><svg t="1583378220161" class="icon" viewBox="0 0 1024 1024" version="1.1" xmlns="http://www.w3.org/2000/svg" p-id="2034" xmlns:xlink="http://www.w3.org/1999/xlink" width="200" height="200"><defs><style type="text/css"></style></defs><path d="M512.084 456.994c176.852 0 320.284-82.8 320.284-184.915s-143.43-184.915-320.284-184.915c-176.852-0.169-320.284 82.631-320.284 184.747 0 102.281 143.43 185.083 320.284 185.083v0zM512.252 137.386c145.949 0 280.31 68.355 280.31 126.133s-134.529 127.474-280.31 127.474c-145.949 0-280.31-69.699-280.31-127.474-0.169-57.775 134.362-126.133 280.31-126.133v0zM512.084 534.084c-152.667 0-280.143-80.449-312.389-168.119-5.038 13.101-8.061 26.704-8.061 40.643 0 102.114 143.43 184.915 320.284 184.915 176.852 0 320.284-82.8 320.284-184.915 0-13.94-2.855-27.543-8.061-40.643-31.744 87.671-159.386 168.119-312.053 168.119v0zM512.084 668.614c-145.782 0-268.555-90.356-307.35-179.371-8.396 16.46-12.931 33.759-12.931 51.729 0 102.114 143.43 184.915 320.284 184.915 176.852 0 320.284-82.8 320.284-184.915 0-17.97-4.703-35.438-12.931-51.729-38.796 89.015-161.57 179.371-307.35 179.371v0zM512.084 776.438c-152.667 0-280.143-80.449-312.389-168.119-5.038 13.101-8.061 26.704-8.061 40.643 0 102.114 143.43 185.083 320.284 185.083 176.852 0 320.284-82.8 320.284-185.083 0-13.94-2.855-27.543-8.061-40.643-31.744 87.671-159.386 168.119-312.053 168.119v0zM512.084 884.263c-152.667 0-280.143-80.449-312.389-168.119-5.038 13.101-8.061 26.704-8.061 40.643 0 102.114 143.43 184.915 320.284 184.915 176.852 0 320.284-82.8 320.284-184.915 0-13.94-2.855-27.543-8.061-40.643-31.744 87.671-159.386 168.119-312.053 168.119v0zM512.084 884.263z" p-id="2035"></path></svg>