<?xml version="1.0" standalone="no"?><!DOCTYPE svg PUBLIC "-//W3C//DTD SVG 1.1//EN" "http://www.w3.org/Graphics/SVG/1.1/DTD/svg11.dtd"><svg t="1583378297889" class="icon" viewBox="0 0 1024 1024" version="1.1" xmlns="http://www.w3.org/2000/svg" p-id="4496" xmlns:xlink="http://www.w3.org/1999/xlink" width="200" height="200"><defs><style type="text/css"></style></defs><path d="M501.333333 409.386667a22.613333 22.613333 0 0 1-12.586666-4.053334 21.333333 21.333333 0 0 1-4.693334-29.866666l66.986667-92.8-92.8 7.68a21.333333 21.333333 0 0 1-21.333333-10.88 21.333333 21.333333 0 0 1 2.346666-23.466667L533.333333 126.08a21.333333 21.333333 0 0 1 34.56 25.173333l-67.2 92.8 93.013334-7.68a21.333333 21.333333 0 0 1 20.266666 10.666667 21.333333 21.333333 0 0 1-1.28 23.04l-94.293333 130.346667a21.333333 21.333333 0 0 1-17.066667 8.96zM682.666667 682.666667a85.333333 85.333333 0 1 1 85.333333-85.333334 85.333333 85.333333 0 0 1-85.333333 85.333334z m0-128a42.666667 42.666667 0 1 0 42.666666 42.666666 42.666667 42.666667 0 0 0-42.666666-42.666666zM341.333333 686.933333a21.333333 21.333333 0 0 1-21.333333-21.333333v-136.533333a21.333333 21.333333 0 1 1 42.666667 0v136.533333a21.333333 21.333333 0 0 1-21.333334 21.333333z" p-id="4497"></path><path d="M409.6 618.666667h-136.533333a21.333333 21.333333 0 1 1 0-42.666667h136.533333a21.333333 21.333333 0 1 1 0 42.666667z" p-id="4498"></path><path d="M704 810.666667H320a213.333333 213.333333 0 0 1 0-426.666667h384a213.333333 213.333333 0 0 1 0 426.666667zM320 426.666667a170.666667 170.666667 0 0 0 0 341.333333h384a170.666667 170.666667 0 0 0 0-341.333333z" p-id="4499"></path></svg>