<?xml version="1.0" standalone="no"?><!DOCTYPE svg PUBLIC "-//W3C//DTD SVG 1.1//EN" "http://www.w3.org/Graphics/SVG/1.1/DTD/svg11.dtd"><svg t="1583378228045" class="icon" viewBox="0 0 1024 1024" version="1.1" xmlns="http://www.w3.org/2000/svg" p-id="2283" xmlns:xlink="http://www.w3.org/1999/xlink" width="200" height="200"><defs><style type="text/css"></style></defs><path d="M893.456828 709.055005" p-id="2284"></path><path d="M491.889987 337.939709" p-id="2285"></path><path d="M568.154951 338.993714" p-id="2286"></path><path d="M577.300238 293.381887" p-id="2287"></path><path d="M474.602252 270.560112" p-id="2288"></path><path d="M771.838933 403.8877c-11.444657-14.084787-23.802102-27.76946-35.759435-41.007973-31.625278-35.034934-61.544705-68.175729-64.219627-96.535637 3.019777-7.087419 16.98279-24.6494 26.387997-36.461423 32.951483-41.420365 70.304206-88.367607 38.277792-120.405277-22.99983-22.99983-79.898725-61.58973-202.576765-61.58973-92.914156 0-160.844292 20.503986-202.420199 61.444421-32.31601 31.725562 4.981455 78.57252 37.887912 119.892601 9.449209 11.867282 23.457248 29.463032 26.588565 36.69576-3.465938 26.208918-34.255175 57.622372-64.052828 88.021729-15.690354 16.012695-31.914874 32.561603-46.044686 49.944506C210.32217 496.878604 174.484963 584.91159 176.334077 673.012114c4.892427 234.635925 220.539882 269.670859 348.644515 269.670859 230.947929 0 349.959463-91.175559 353.726254-271.00832C880.554984 582.238714 845.597821 494.63961 771.838933 403.8877zM524.978593 897.040447c-197.951421 0-299.903417-75.697029-303.000965-224.986147-1.6158-76.833923 30.878265-155.138336 99.343589-239.371786 12.792351-15.734356 28.27088-31.524994 43.236733-46.791699 38.032198-38.812981 73.959455-75.463716 77.1798-118.744451 1.326205-17.807574-11.645225-34.989909-36.616966-66.348104-12.591783-15.823384-38.232766-48.016597-39.893592-60.575634 40.383756-38.556131 113.89705-46.691415 168.722726-46.691415 106.464777 0 152.653749 31.479969 168.722726 46.680159-1.437745 12.603039-27.402093 45.231157-40.138162 61.255109-24.50409 30.789237-37.241182 47.671743-36.405141 65.088414 2.183735 45.075615 38.077224 84.823897 76.076676 126.912481 11.56643 12.803607 23.512507 26.042119 34.221406 39.214117 66.648956 82.004689 98.262978 159.875221 96.635921 238.045581C831.891657 726.70192 828.336692 897.040447 524.978593 897.040447z" p-id="2289"></path><path d="M546.82004 568.030108c-4.635577-2.942005-8.892531-5.627161-12.43624-8.112772-21.696138-15.188934-34.779108-30.354332-36.851303-42.724057-0.635473-3.78828-0.768503-9.783831 5.337565-18.186198 6.240121-8.591679 15.645328-13.32754 27.947516-14.074553 18.219967-1.192152 36.171828 6.886851 41.687448 12.82612 8.591679 9.248641 23.044856 9.772574 32.249495 1.180895 9.238408-8.580422 6.372128-23.022343-2.208295-32.249495-12.914124-13.893428-26.732851-23.64963-61.525262-26.524097l0-12.912078c0-12.603039-9.909697-22.821775-22.512736-22.821775-12.603039 0-22.512736 10.218736-22.512736 22.821775l0 17.573237c-12.279674 5.454222-23.964808 14.72026-33.135678 27.345812-11.82328 16.269545-14.918781 34.444487-11.887748 52.55189 4.223185 25.251104 23.736611 49.677423 56.465013 72.576969 4.033873 2.830465 9.266038 5.916756 14.559601 9.271154 45.276183 28.717042 56.109925 43.503816 45.713134 63.328327-5.471618 10.441816-15.995299 17.550725-29.043477 19.512403-18.019399 2.696412-36.803207-4.312212-51.612495-19.266809-8.881274-8.947789-23.288402-8.992815-32.258705-0.145309-8.947789 8.870018-12.0832 23.323195-3.213181 32.282241 13.882172 14.004969 32.133861 23.785729 44.413536 28.989241l0 38.305421c0 12.603039 9.909697 22.821775 22.512736 22.821775s22.512736-10.218736 22.512736-22.821775l0-35.492352c34.792411-4.663206 51.951209-20.169365 63.920822-42.99114C638.016065 628.004037 577.520249 587.498508 546.82004 568.030108z" p-id="2290"></path></svg>