<?xml version="1.0" standalone="no"?><!DOCTYPE svg PUBLIC "-//W3C//DTD SVG 1.1//EN" "http://www.w3.org/Graphics/SVG/1.1/DTD/svg11.dtd"><svg t="1583425287698" class="icon" viewBox="0 0 1024 1024" version="1.1" xmlns="http://www.w3.org/2000/svg" p-id="1418" xmlns:xlink="http://www.w3.org/1999/xlink" width="200" height="200"><defs><style type="text/css"></style></defs><path d="M969.94484 155.287912L940.687698 18.004396c0-4.501099-2.250549-6.751648-4.501099-9.002198L931.6855 4.501099c-6.751648-4.501099-13.503297-4.501099-20.254945-4.501099l-130.531868 38.259341c-11.252747 4.501099-18.004396 15.753846-15.753847 27.006593 2.250549 9.002198 11.252747 15.753846 22.505495 15.753846h6.751648l76.518682-22.505494c-2.250549 2.250549-2.250549 6.751648-4.501099 9.002198C706.630555 380.342857 409.558027 598.646154 71.97561 657.16044c-11.252747 2.250549-20.254945 13.503297-18.004396 27.006593 2.250549 11.252747 11.252747 18.004396 22.505495 18.004396h4.501098C432.063522 641.406593 740.388796 414.101099 906.929456 90.021978c0-2.250549 2.250549-4.501099 2.250549-6.751648l18.004396 81.01978c2.250549 11.252747 11.252747 18.004396 22.505494 18.004395h4.501099c11.252747-2.250549 18.004396-13.503297 15.753846-27.006593zM909.180005 321.828571c-13.503297 0-22.505495 9.002198-22.505494 22.505495v657.160439c0 13.503297 9.002198 22.505495 22.505494 22.505495s22.505495-9.002198 22.505495-22.505495V344.334066c0-13.503297-9.002198-22.505495-22.505495-22.505495zM645.86572 578.391209c-13.503297 0-22.505495 9.002198-22.505495 22.505494v398.347253c0 13.503297 9.002198 22.505495 22.505495 22.505495s22.505495-9.002198 22.505494-22.505495V600.896703c0-11.252747-11.252747-22.505495-22.505494-22.505494zM380.300884 762.936264c-13.503297 0-22.505495 9.002198-22.505494 22.505494v216.052747c0 13.503297 9.002198 22.505495 22.505494 22.505495s22.505495-9.002198 22.505495-22.505495v-216.052747c0-13.503297-11.252747-22.505495-22.505495-22.505494zM114.736049 839.454945c-13.503297 0-22.505495 9.002198-22.505494 22.505495v137.283516c0 13.503297 9.002198 22.505495 22.505494 22.505495s22.505495-9.002198 22.505495-22.505495v-137.283516c0-11.252747-11.252747-22.505495-22.505495-22.505495z" p-id="1419"></path></svg>