<?xml version="1.0" standalone="no"?><!DOCTYPE svg PUBLIC "-//W3C//DTD SVG 1.1//EN" "http://www.w3.org/Graphics/SVG/1.1/DTD/svg11.dtd"><svg t="1583378190888" class="icon" viewBox="0 0 1024 1024" version="1.1" xmlns="http://www.w3.org/2000/svg" p-id="1668" xmlns:xlink="http://www.w3.org/1999/xlink" width="200" height="200"><defs><style type="text/css"></style></defs><path d="M958.293183 735.619627c-2.958005-32.348633-18.324476-61.629705-43.277585-82.419697-24.953109-20.817636-56.590142-30.486186-88.883485-27.665382a26.269826 26.269826 0 0 0-4.382229 0.76689L624.050938 676.782056c-12.040891-29.10394-38.697746-51.227031-71.774361-55.711648l-235.399427-36.320284c-24.295775-3.149471-48.235238 3.06756-67.710561 17.886253-11.120419 8.463436-19.995457 19.119011-26.158222 31.22543l-126.30035-28.733293c-15.037804-3.588718-30.129873 5.998944-33.553746 21.118658-3.451517 15.09207 5.998944 30.129873 21.118658 33.553746l151.225815 34.430192c7.64228 1.808181 15.722783 0.191467 22.186571-4.272673a28.134321 28.134321 0 0 0 11.833043-19.282833c1.260403-9.367527 6.1085-17.694786 13.641224-23.419329 7.505079-5.724543 16.68114-8.162414 25.665734-6.984945l235.398403 36.320284c19.365767 2.629338 32.979346 20.488969 30.348985 39.827091-2.629338 19.338122-20.487945 32.979346-39.634601 30.37663L308.057402 714.337146c-15.256915-2.109204-29.527829 8.463436-31.746589 23.803286-2.191115 15.338826 8.463436 29.55445 23.802262 31.746589l227.099813 32.485833a93.685507 93.685507 0 0 0 12.298911 0.82218c41.846193 0 78.78388-28.808037 88.821028-69.62113l204.948054-52.323612c16.708785-1.067912 32.924057 4.272673 45.825011 15.065449 8.27197 6.87539 14.599581 15.503672 18.598877 25.17222L533.348009 874.875198a27.931592 27.931592 0 0 0-12.886621 10.98629c-27.851729 21.294767-67.96346 19.233686-93.418273-6.221128a28.208041 28.208041 0 0 0-4.484618-3.645031 27.883469 27.883469 0 0 0-12.662389-6.654231l-313.162494-71.546035C81.668165 794.261635 66.576095 803.766362 63.152223 818.886077c-3.451517 15.09207 5.998944 30.129873 21.091014 33.581391l306.489833 70.021469c24.335706 22.645272 55.444414 34.010399 86.572576 34.010399 30.808709 0 61.608204-11.121442 85.854832-33.305966l378.067608-159.171164c11.258643-4.736494 18.160654-16.240869 17.065097-28.402579zM360.12709 345.871534h-0.027645c-15.476027 0-28.048315 12.545667-28.048315 28.02067 0 15.503672 12.545667 28.075959 28.02067 28.07596l125.218104 0.10034-0.095222 97.822004c-0.027645 15.503672 12.518022 28.048315 28.02067 28.07596h0.027645c15.476027 0 28.02067-12.544643 28.048314-28.02067l0.095222-97.832243 125.191482 0.100341h0.027645c15.476027 0 28.048315-12.545667 28.048315-28.02067 0-15.503672-12.544643-28.075959-28.02067-28.075959l-125.191482-0.100341 0.061433-63.097957 125.074759 0.089078h0.027645c15.476027 0 28.048315-12.544643 28.048315-28.02067 0-15.503672-12.544643-28.075959-28.02067-28.075959l-95.44659-0.0686 99.856464-118.945782c9.970595-11.860688 8.436815-29.55445-3.451517-39.497401-11.833043-9.94295-29.55445-8.436815-39.498424 3.451518L515.694178 205.737469 403.295119 71.851153c-9.915305-11.887309-27.637737-13.394468-39.4974-3.451518-11.887309 9.94295-13.422113 27.637737-3.451518 39.497401l99.789912 118.866942-100.009023-0.071672h-0.027645c-15.476027 0-28.048315 12.545667-28.048315 28.02067 0 15.503672 12.545667 28.075959 28.02067 28.07596l125.333803 0.090102-0.061434 63.092837-125.217079-0.100341z" fill="#3E3A39" p-id="1669"></path></svg>