<?xml version="1.0" standalone="no"?><!DOCTYPE svg PUBLIC "-//W3C//DTD SVG 1.1//EN" "http://www.w3.org/Graphics/SVG/1.1/DTD/svg11.dtd"><svg t="1583378285851" class="icon" viewBox="0 0 1024 1024" version="1.1" xmlns="http://www.w3.org/2000/svg" p-id="4126" xmlns:xlink="http://www.w3.org/1999/xlink" width="200" height="200"><defs><style type="text/css"></style></defs><path d="M857.728 381.77792c-6.53824 7.92576-15.93344 11.9808-26.25024 13.99808a23.41376 23.41376 0 0 0-13.6704-4.4288c-9.3696-0.0768-21.28896 2.01216-34.08896 4.28544a257.4848 257.4848 0 0 1-9.31328 0.58368c-20.29056-1.54624-40.45312-4.5824-60.69248-6.5792a22.96832 22.96832 0 0 0-10.68032 1.36704 33.85856 33.85856 0 0 1-6.4768-7.45984c-17.664-27.76576-61.98272-2.10432-44.2112 25.84064 0.80384 1.26464 1.63328 2.42688 2.45248 3.61984-0.512 0.34304-0.96256 0.75264-1.43872 1.1264-9.92256-11.2896-30.83776-11.86816-42.2912 3.03104-21.4784 27.93984-82.0992 24.09984-112.6144 24.18688-19.41504 0.0512-38.86592-1.23904-58.31168-2.048 43.88352 0.24576 88.02816-4.72064 128.384-20.83328 46.42816-18.53952 85.04832-68.09088 65.50528-119.63904-22.44608-59.18208-98.21184-63.1552-151.66464-63.5136-16.70144-1.41312-33.87904-2.14528-51.06176-1.67936-38.46144-1.48992-78.51008-1.8944-113.69472 9.40544-6.67648-3.47136-14.848-4.352-23.34208-0.60416-39.86944 17.58208-83.81952 32.98304-108.43136 71.49568-11.99104 18.75968-12.37504 44.40064-3.15392 64.22016 4.80256 10.32192 12.78976 17.8432 22.07744 23.68512-11.66336-2.23744-23.82336 2.80576-26.35776 18.02752-0.7936 4.76672-1.02912 9.1648-0.9728 13.37344-14.39744 23.48544-10.2912 62.17728-8.85248 85.85728 3.8912 64.03584-12.04224 136.13568 9.5232 197.71392 17.52064 50.02752 60.87168 81.55136 108.16 100.80256 44.19584 18.00192 91.66336 18.44224 138.55232 19.13344 44.83584 0.67584 91.52 0.10752 134.656-13.4144 45.19936-14.16192 70.29248-45.18912 72.42752-92.24192 3.05152-66.86208 2.18112-134.02112 9.22112-200.59136 0.62976 6.4256 1.41824 12.84608 2.32448 19.24608-0.12288 22.3232-0.04096 44.66688-2.74432 66.95936-4.76672 39.21408-12.52864 83.13344 1.9712 121.216 14.40768 37.82144 56.41216 55.26528 93.50144 62.10048 43.51488 8.01792 89.70752 0.93184 120.9088-32.67584 31.91296-34.37056 28.5184-85.0688 29.32224-128.38912 0.9216-49.78688 4.43392-99.48672 7.45472-149.19168 1.37728-14.53568 2.27328-29.12768 2.45248-43.80672 0.09728-7.76192-2.59072-13.66016-6.73792-17.76128a154.7264 154.7264 0 0 1 8.3712-15.39584c15.11424-24.35072-21.4784-53.69856-40.21248-31.02208z m-498.10432 1.28c-5.07392-0.51712-10.32192-0.95232-15.68256-1.36704 2.54976-9.69216-0.31744-20.40832-11.87328-26.624-10.37312-5.5808-14.42304-11.53536-14.36672-17.44384 4.62336-8.14592 9.53856-15.13472 15.63648-21.30944a112.32256 112.32256 0 0 1 10.0352-6.4768c23.38304-13.44512 54.94784-15.03744 81.24928-14.48448 19.66592 0.41472 44.34944 5.7344 60.1088 18.0992 16.54784 12.98432 5.97504 50.08896-15.39584 51.77344-14.96064 1.1776-23.17312 12.43648-24.46336 24.09984-29.63456-0.41984-59.14624-3.6096-85.248-6.26688z" fill="#FFFFFF" p-id="4127"></path><path d="M493.14304 314.76224c-6.45632-14.73536-20.26496-16.03584-31.19104-10.04544-27.04896-22.0928-85.16608-11.63776-108.8256 9.6768a45.55264 45.55264 0 0 0-8.55552 10.37824c-17.22368 7.09632-19.80928 37.60128-1.65376 45.49632 5.12 2.2272 10.43456 4.09088 15.82592 5.72928 15.54432 9.22112 35.24608 10.42432 52.89472 9.32864 38.6048-2.39616 104.61184-17.83296 81.50528-70.56384z" fill="#FFFFFF" p-id="4128"></path><path d="M437.28896 308.85888c-38.01088-2.40128-63.47776 14.92992-97.05472 28.32896-18.16576 7.24992-10.25024 36.97152 8.1664 29.62432 2.0736-0.82944 4.1216-1.67424 6.14912-2.52416 1.88416 3.11808 4.82816 5.53984 8.7296 6.36416 27.26912 5.76 133.9904 20.54656 131.08736-30.45888-1.4592-25.60512-38.21568-30.14144-57.07776-31.3344zM642.56 414.72c2.13504-26.02496-22.97856-19.43552-29.17888-6.79424-10.12736-3.79904-23.936-2.70336-32.0256 2.0736a23.92576 23.92576 0 0 0-9.53344 10.1376C562.78016 414.6688 547.84 418.816 547.84 432.64c0 55.92576 1.03936 111.83104-2.56 167.68-3.69152 57.27232-4.02432 117.65248-15.61088 173.83424-3.06176 14.82752-5.28384 31.22688 3.47136 44.544 6.4256 9.76896 19.83488 10.51136 27.94496 2.40128 3.96288-3.968 6.63552-9.3952 8.576-15.20128 3.4304 4.23936 8.81152 6.26688 15.54432 5.0688 23.424-4.16256 39.85408-12.07808 45.06624-36.64896 5.93408-28.02176 1.17248-61.92128 1.12128-90.44992-0.08192-45.10208-0.20992-89.49248 3.27168-134.50752 3.46112-44.86656 4.21376-89.7536 7.89504-134.64064z" fill="#F5F5F5" p-id="4129"></path><path d="M396.40064 396.66688c19.93216 0 40.832-2.4576 62.12096-7.30624 49.73056-11.31008 56.78592-36.67968 53.95456-55.96672-2.23744-15.2576-15.51872-28.3392-38.41536-37.82656-12.48768-5.1712-29.09184-7.79776-49.35168-7.79776-18.4832 0-34.27328 2.19136-37.75488 2.70848-25.00096 1.98656-66.8416 21.94944-76.69248 49.38752-4.89472 13.6448-1.24416 27.56096 10.02496 38.18496 11.81184 11.136 42.39872 18.61632 76.11392 18.61632z m-57.22112-46.42304c4.1728-11.61216 32.50176-27.97056 50.52416-29.16864l1.39264-0.1536a241.1008 241.1008 0 0 1 33.61792-2.432c15.9744 0 28.96896 1.88928 37.59104 5.45792 14.27456 5.9136 19.49184 11.91936 19.78368 13.90592 0.56832 3.87584 2.08384 14.16704-30.37184 21.55008-19.06176 4.33664-37.66784 6.53824-55.31136 6.53824-32.384 0-51.7632-7.59296-55.04-10.25024-3.0976-2.91328-2.67264-4.08576-2.18624-5.44768z" fill="#666666" p-id="4130"></path><path d="M898.06848 549.49376c10.25024-61.25568 25.48736-122.53184 19.3792-185.06752-0.8704-8.92928-7.7824-13.76256-14.82752-14.55616-2.74432-1.0752-6.016-1.2288-9.728 0.10752-70.13888 25.13408-184.77056 44.88192-226.90304-35.49696-1.83808-3.51232-4.38272-5.64736-7.18336-6.7584-14.6176-28.07296-47.66208-49.31072-76.0576-63.18592-47.5904-23.24992-116.03968-28.12928-165.06368-28.12928-31.15008 0-54.0416 1.93024-58.35776 2.31936-60.4416 0.64-168.11008 45.02528-194.18112 105.64096-4.87936 11.3408-8.14592 26.27072-3.92192 42.81856 4.05504 124.94848-18.48832 249.344-5.68832 374.20032 0.27648 2.70848 1.152 5.00736 2.37056 6.96832 0.36352 1.33632 0.86016 2.69312 1.66912 4.0704 45.24544 76.93312 154.79296 111.7952 239.7184 110.70464 82.46272-1.05472 191.47264-18.08384 252.29824-80.19968 73.1648 51.28192 190.39232 44.24192 241.65376-34.4576 4.63872-2.12992 8.064-6.50752 7.7568-13.30688-1.42848-30.44352-6.29248-60.53376-9.10848-90.86464-2.9952-32.07168 0.89088-63.18592 6.17472-94.80704zM193.34656 336.50688c18.7904-43.68896 111.40096-86.784 166.8096-87.06048l1.39264-0.07168c0.23552-0.02048 23.76704-2.24256 56.1152-2.24256 45.7984 0 109.27616 4.33664 151.59296 25.0112 40.47872 19.77856 64.6912 42.68544 66.39104 62.84288 3.6096 42.68544-31.89248 69.53472-108.54912 82.08384-40.54528 6.63552-80.54784 9.99936-118.90688 9.99936-113.78176 0-189.52192-30.39744-204.78976-46.6688-5.79072-6.17472-9.5744-12.26752-11.61728-18.42176l-0.02048-0.80896a15.9488 15.9488 0 0 0-1.55136-6.41024c-0.56832-5.92384 0.42496-11.9552 3.13344-18.2528z m430.79168 426.3936c0.0768 1.16224 0.27136 2.22208 0.53248 3.23584-55.49056 50.97984-148.7104 63.45728-219.88352 66.15552-75.27424 2.8416-178.37568-26.78784-218.7008-95.36-0.0768-0.11776-0.17408-0.22016-0.256-0.33792-10.36288-108.7232 5.43744-217.11872 6.57408-325.84192 31.26784 21.10464 105.79968 47.04256 215.79264 47.04256 40.0128 0 81.6896-3.50208 123.86304-10.40384 49.024-8.02304 84.73088-22.36928 107.008-42.84416-2.38592 119.51104-22.6304 238.57152-14.92992 358.35392z m242.79552-212.51584c-4.71552 28.1856-7.808 56.18688-6.45632 84.7872 1.48992 31.21152 7.28064 62.02368 9.33888 93.19424-0.256 0.34304-0.53248 0.61952-0.74752 0.99328-42.7008 70.18496-153.0112 71.44448-210.31936 20.37248a16.03584 16.03584 0 0 0-4.64896-2.88256c-5.59104-126.55104 17.58208-252.3648 15.74912-378.81856 56.448 47.47776 149.01248 38.10304 218.07104 16.00512 1.69472 56.05888-11.76576 111.21152-20.98688 166.3488z" fill="#666666" p-id="4131"></path></svg>