<?xml version="1.0" standalone="no"?><!DOCTYPE svg PUBLIC "-//W3C//DTD SVG 1.1//EN" "http://www.w3.org/Graphics/SVG/1.1/DTD/svg11.dtd"><svg t="1583378250520" class="icon" viewBox="0 0 1024 1024" version="1.1" xmlns="http://www.w3.org/2000/svg" p-id="3143" xmlns:xlink="http://www.w3.org/1999/xlink" width="200" height="200"><defs><style type="text/css"></style></defs><path d="M905.846154 748.307692c0 86.646154-70.892308 157.538462-157.538462 157.538462s-157.538462-70.892308-157.538461-157.538462 157.538462-315.076923 157.538461-315.076923 157.538462 228.430769 157.538462 315.076923z" p-id="3144"></path><path d="M748.307692 937.353846c-103.975385 0-189.046154-85.070769-189.046154-189.046154 0-93.735385 146.510769-308.775385 163.052308-333.193846 5.513846-8.664615 15.753846-13.390769 25.993846-13.390769s19.692308 4.726154 25.993846 13.390769C790.843077 439.532308 937.353846 654.572308 937.353846 748.307692c0 103.975385-85.070769 189.046154-189.046154 189.046154z m0-447.409231C691.593846 577.378462 622.276923 700.258462 622.276923 748.307692c0 69.316923 56.713846 126.030769 126.030769 126.03077s126.030769-56.713846 126.03077-126.03077c0-48.049231-69.316923-170.929231-126.03077-258.363077z" p-id="3145"></path><path d="M118.153846 937.353846c-3.938462 0-7.876923-0.787692-11.815384-2.363077-13.390769-5.513846-21.267692-19.692308-18.904616-34.658461l78.769231-472.615385c2.363077-14.966154 15.753846-25.993846 30.72-25.993846h110.276923l15.753846-285.144615c0.787692-16.541538 14.966154-29.932308 31.507692-29.932308h393.846154c11.027692 0 21.267692 5.513846 26.781539 14.966154 5.513846 9.452308 6.301538 20.48 1.575384 30.72l-227.643077 472.615384c-5.513846 10.24-16.541538 17.329231-28.356923 17.329231H353.673846l-209.526154 301.686154c-6.301538 8.664615-15.753846 13.390769-25.993846 13.390769z m105.550769-472.615384l-51.2 307.987692 138.633847-200.073846c5.513846-8.664615 15.753846-13.390769 25.993846-13.39077h163.84l196.923077-409.6H384.393846l-15.753846 285.144616c-0.787692 16.541538-14.966154 29.932308-31.507692 29.932308H223.704615z" p-id="3146"></path></svg>