<?xml version="1.0" standalone="no"?><!DOCTYPE svg PUBLIC "-//W3C//DTD SVG 1.1//EN" "http://www.w3.org/Graphics/SVG/1.1/DTD/svg11.dtd"><svg t="1583485770685" class="icon" viewBox="0 0 1024 1024" version="1.1" xmlns="http://www.w3.org/2000/svg" p-id="1453" xmlns:xlink="http://www.w3.org/1999/xlink" width="200" height="200"><defs><style type="text/css"></style></defs><path d="M844.49823594 726.99647099h-76.85250557v-52.71700693h76.85250557c12.06774844 0 22.23006328-10.16231484 22.23006328-22.23006416s-10.16231484-22.23006328-22.23006328-22.23006328H817.82215948l13.33803779-29.85179941c5.08115742-11.4326042 0-24.13549776-11.43260333-29.21665518-11.4326042-5.08115742-24.13549776 0-29.21665517 11.4326042l-20.95977393 47.63585039h-38.10868066l-20.95977392-47.63585039c-5.08115742-11.4326042-17.78405097-16.51376162-29.21665518-11.4326042-11.4326042 5.08115742-16.51376162 17.78405097-11.4326042 29.21665518l13.33803779 29.85179941H646.33309825c-12.06774844 0-22.23006328 10.16231484-22.23006329 22.23006328s10.16231484 22.23006328 22.23006328 22.23006416h76.85250557v52.71700693H646.33309825c-12.06774844 0-22.23006328 10.16231484-22.23006329 22.23006417s10.16231484 22.23006328 22.23006328 22.23006328h76.85250557V830.52505303c0 12.06774844 10.16231484 22.23006328 22.23006328 22.23006328s22.23006328-10.16231484 22.23006328-22.23006328v-59.06845459h76.85250557c12.06774844 0 22.23006328-10.16231484 22.23006328-22.23006328s-10.16231484-22.23006328-22.23006328-22.23006417z" p-id="1454"></path><path d="M559.31827783 791.146083H243.01623184c-8.25688037 0-14.60832715-6.98659102-14.60832803-14.60832714V195.38038145c0-8.25688037 6.98659102-14.60832715 14.60832803-14.60832803H754.30769258c8.25688037 0 14.60832715 6.98659102 14.60832715 14.60832802v295.97741632c0 12.06774844 10.16231484 22.23006328 22.23006328 22.23006416s22.23006328-10.16231484 22.23006416-22.23006416V195.38038145c0-32.39237813-26.67607646-59.06845459-59.06845459-59.0684546H243.01623184c-32.39237813 0-59.06845459 26.67607646-59.0684546 59.06845459v581.79251866c0 32.39237813 26.67607646 59.06845459 59.0684546 59.06845459h315.66690175c12.06774844 0 22.23006328-10.16231484 22.23006328-22.23006328s-9.52716973-22.86520839-21.59491904-22.8652084z" p-id="1455"></path><path d="M690.79322481 237.93507442H300.17925195c-12.06774844 0-22.23006328 10.16231484-22.23006328 22.23006328s10.16231484 22.23006328 22.23006328 22.23006328H690.79322481c12.06774844 0 22.23006328-10.16231484 22.23006415-22.23006328s-10.16231484-22.23006328-22.23006415-22.23006328zM713.02328896 368.13973203c0-12.06774844-10.16231484-22.23006328-22.23006415-22.23006328H300.17925195c-12.06774844 0-22.23006328 10.16231484-22.23006328 22.23006328s10.16231484 22.23006328 22.23006328 22.23006328H690.79322481c12.06774844 0 22.23006328-10.16231484 22.23006415-22.23006328z" p-id="1456"></path><path d="M303.3549749 481.83062803m-24.13549688 0a24.13549776 24.13549776 0 1 0 48.27099464 0 24.13549776 24.13549776 0 1 0-48.27099463 0Z" p-id="1457"></path><path d="M387.8292166 481.83062803m-24.13549775 0a24.13549776 24.13549776 0 1 0 48.2709955 0 24.13549776 24.13549776 0 1 0-48.2709955 0Z" p-id="1458"></path><path d="M472.3034583 481.83062803m-24.13549775 0a24.13549776 24.13549776 0 1 0 48.27099463 0 24.13549776 24.13549776 0 1 0-48.27099463 0Z" p-id="1459"></path></svg>