<?xml version="1.0" standalone="no"?><!DOCTYPE svg PUBLIC "-//W3C//DTD SVG 1.1//EN" "http://www.w3.org/Graphics/SVG/1.1/DTD/svg11.dtd"><svg t="1583378305668" class="icon" viewBox="0 0 1024 1024" version="1.1" xmlns="http://www.w3.org/2000/svg" p-id="4789" xmlns:xlink="http://www.w3.org/1999/xlink" width="200" height="200"><defs><style type="text/css"></style></defs><path d="M877.636267 552.618667l0.887466 12.1856c0.170667 1.877333 0.2048 3.515733 0.170667 4.8128l0.238933 8.6016a25.531733 25.531733 0 0 1-1.4336 9.079466c-0.341333 28.398933-3.4816 54.033067-9.5232 76.526934l-0.989866 3.6864c-4.266667 16.042667-6.792533 24.2688-10.717867 33.792-4.846933 11.776-8.362667 19.968-12.151467 28.0576-10.274133 22.084267-23.9616 43.008-41.472 64.785066a279.825067 279.825067 0 0 1-9.898666 11.707734l-5.495467 6.2464-6.485333 6.587733c-2.082133 2.423467-3.925333 4.3008-6.826667 6.9632l-1.604267 1.536-0.4096 0.341333-0.443733 0.477867a23.790933 23.790933 0 0 1-3.345067 3.072l-10.9568 9.898667a263.168 263.168 0 0 0-7.645866 6.075733l-1.1264 0.9216a228.693333 228.693333 0 0 1-13.892267 10.8544 385.6384 385.6384 0 0 1-89.361067 47.581867c-18.363733 6.929067-38.5024 12.424533-61.917866 17.2032a225.962667 225.962667 0 0 1-20.48 3.037866c-6.724267 0.785067-9.181867 1.092267-14.574934 1.8432l-18.773333 1.297067a723.285333 723.285333 0 0 1-14.301867 0.341333h-7.031466l-8.021334-0.341333H497.220267c-4.539733 0.034133-6.724267 0-8.055467-0.273067l-10.820267-0.750933-2.286933-0.341333a193.262933 193.262933 0 0 0-6.144-0.546134 132.778667 132.778667 0 0 1-14.404267-1.7408 130.833067 130.833067 0 0 0-4.539733-0.785066l-3.003733-0.443734a153.3952 153.3952 0 0 1-13.312-2.3552l-6.2464-1.467733c-20.411733-4.778667-32.017067-7.918933-44.2368-12.424533a389.0176 389.0176 0 0 1-92.228267-47.650134 301.090133 301.090133 0 0 1-13.312-10.205866l-1.672533-1.297067c-3.413333-2.730667-5.4272-4.266667-9.216-7.236267l-10.24-9.216-5.256534-4.881066-1.297066-1.194667-0.375467-0.341333a68.096 68.096 0 0 1-6.314667-6.2464l-7.2704-7.509334a292.2496 292.2496 0 0 0-5.3248-6.007466l-0.955733-1.058134c-4.437333-4.9152-6.826667-7.611733-9.6256-11.093333a423.936 423.936 0 0 1-22.459733-31.1296 185.4464 185.4464 0 0 1-6.656-10.9568l-0.477867-0.785067a753.322667 753.322667 0 0 0-4.096-6.9632l-5.188267-10.0352-5.358933-10.752a370.3808 370.3808 0 0 1-7.031467-16.247466l-1.262933-3.072c-4.573867-10.9568-7.611733-20.957867-12.322133-38.912l-2.56-9.693867a109.2608 109.2608 0 0 1-1.9456-10.171733 98.816 98.816 0 0 0-1.024-5.802667c-3.2768-15.530667-4.471467-31.4368-4.642134-54.3744a25.6 25.6 0 0 1-0.989866-7.2704c0.580267-58.709333 14.9504-112.401067 40.618666-153.053867 5.12-7.850667 10.6496-15.4624 16.520534-22.664533 1.706667-2.1504 3.072-3.618133 5.7344-6.314667l0.273066-0.3072 1.8432-1.911466c4.437333-5.2224 9.489067-10.0352 15.189334-14.404267l2.082133-1.774933 0.238933-0.2048c2.2528-1.9456 3.549867-3.037867 5.3248-4.334934 13.585067-10.001067 23.825067-16.384 36.0448-21.435733l4.778667-2.048c3.959467-1.706667 6.280533-2.696533 9.181867-3.754667 7.850667-2.935467 15.940267-5.188267 27.374933-7.918933 4.1984-0.989867 7.509333-1.536 14.097067-2.491733 3.857067-0.546133 5.188267-0.750933 9.045333-1.365334l4.778667-0.341333c3.072-0.477867 5.12-0.580267 9.147733-0.682667 1.911467-0.034133 2.525867-0.068267 5.461333-0.341333l3.345067-0.068267c7.850667-0.682667 15.803733-0.341333 23.893333 1.160534 27.101867 5.4272 53.589333 13.312 78.506667 23.483733 17.988267 6.826667 35.84 13.960533 53.5552 21.4016l2.730667-1.160533c55.876267-23.893333 82.158933-33.757867 119.022933-42.325334a79.189333 79.189333 0 0 1 11.946667-1.8432c2.8672-0.3072 3.857067-0.4096 5.0176-0.6144l4.334933-0.3072 7.850667 0.1024 6.314666 0.1024 11.776 0.9216c1.194667 0.170667 2.286933 0.3072 5.256534 0.512 4.7104 0.375467 7.099733 0.648533 10.513066 1.262934l3.140267 0.580266c16.2816 3.072 25.156267 5.188267 35.157333 8.874667l4.949334 1.774933c9.9328 3.6864 15.701333 6.144 21.981866 9.557334 8.772267 4.778667 17.237333 10.001067 25.531734 15.803733 29.5936 21.128533 52.974933 52.5312 68.881066 90.112 2.491733 5.905067 4.437333 11.3664 7.236267 20.036267l2.082133 6.485333c2.013867 6.3488 3.345067 11.810133 5.563734 22.1184 0.9216 4.3008 1.365333 6.212267 2.116266 9.898667l1.774934 10.820266c0.750933 3.754667 1.024 6.485333 1.4336 11.946667 0.238933 3.515733 0.375467 4.846933 0.9216 8.772267z m-51.3024 26.385066a25.6 25.6 0 0 1 1.194666-7.850666v-0.853334-0.785066l-0.068266-0.750934-0.580267-9.898666a99.601067 99.601067 0 0 1-1.2288-11.298134 52.974933 52.974933 0 0 0-0.750933-6.621866l-1.604267-10.0352-1.9456-8.9088a193.297067 193.297067 0 0 0-4.3008-17.408l-2.013867-6.2464a189.986133 189.986133 0 0 0-5.666133-15.872c-12.424533-29.354667-30.139733-53.1456-51.3024-68.266667a210.500267 210.500267 0 0 0-20.514133-12.629333 109.056 109.056 0 0 0-15.223467-6.485334l-4.8128-1.774933c-6.485333-2.389333-13.380267-3.9936-27.0336-6.587733l-3.003733-0.546134a52.770133 52.770133 0 0 0-5.12-0.546133 59.869867 59.869867 0 0 1-6.929067-0.7168l-8.192-0.6144-4.846933-0.068267-5.870934-0.068266a180.224 180.224 0 0 1-5.5296 0.6144c-3.072 0.3072-4.232533 0.477867-5.290666 0.7168-33.28 7.748267-57.514667 16.827733-110.762667 39.594666l-0.136533 0.068267-12.663467 5.4272a25.6 25.6 0 0 1-20.138667-0.034133 1605.973333 1605.973333 0 0 0-62.1568-25.122134 385.160533 385.160533 0 0 0-69.495466-20.821333 40.413867 40.413867 0 0 0-11.093334-0.375467l-2.218666-0.068266a67.925333 67.925333 0 0 1-8.465067 0.546133 32.1536 32.1536 0 0 0-4.164267 0.341333l-4.4032 0.273067c-2.389333 0.4096-3.959467 0.682667-8.362666 1.297067-5.12 0.7168-7.406933 1.1264-9.557334 1.604266a186.026667 186.026667 0 0 0-21.333333 6.075734c-1.774933 0.682667-3.515733 1.399467-6.724267 2.798933l-5.461333 2.321067c-7.5776 3.140267-14.7456 7.611733-25.326933 15.394133l-2.082134 1.7408-0.238933 0.2048c-2.048 1.809067-3.208533 2.7648-4.608 3.822933-2.696533 2.048-5.12 4.369067-7.509333 7.236267-1.194667 1.3312-2.184533 2.3552-3.8912 4.096l-0.273067 0.341333a44.8512 44.8512 0 0 0-2.696533 2.8672c-4.778667 5.802667-9.147733 11.8784-13.073067 17.954134-19.319467 30.549333-31.061333 72.465067-32.4608 119.432533a25.6 25.6 0 0 1 0.8192 6.417067c0 23.415467 0.887467 38.024533 3.515733 50.551466 0.580267 2.594133 0.887467 4.334933 1.536 8.430934 0.512 3.242667 0.785067 4.608 1.024 5.5296l2.4576 9.454933c4.130133 15.7696 6.656 24.029867 10.069334 32.256l1.297066 3.072c2.8672 7.031467 4.369067 10.478933 5.802667 13.585067l4.881067 9.762133 4.096 8.055467c1.2288 1.9456 2.2528 3.6864 3.925333 6.587733l0.477867 0.8192c2.4576 4.266667 3.618133 6.178133 4.983466 8.2944 6.587733 9.966933 13.141333 19.114667 19.729067 27.306667 1.9456 2.423467 3.857067 4.608 7.68 8.874666l0.989867 1.024c2.798933 3.140267 4.4032 4.949333 5.051733 5.802667l7.202133 7.441067c0.477867 0.546133 1.262933 1.297067 3.2768 3.140266l0.341334 0.341334 1.604266 1.467733 4.846934 4.5056 8.260266 7.509333c2.525867 1.911467 4.778667 3.6864 8.533334 6.656l1.6384 1.297067c5.290667 4.1984 8.0896 6.382933 11.0592 8.4992a337.92 337.92 0 0 0 80.145066 41.301333c9.898667 3.6864 19.968 6.417067 38.434134 10.752l6.144 1.4336c2.184533 0.477867 4.334933 0.853333 9.216 1.570134l3.2768 0.512c2.389333 0.341333 4.369067 0.682667 6.212266 1.024 2.1504 0.4096 4.266667 0.648533 9.352534 1.058133 3.549867 0.341333 5.358933 0.477867 7.611733 0.750933 1.9456 0.2048 1.9456 0.2048 1.809067 0.273067l10.581333 0.750933H500.053333c2.56 0 4.881067 0.170667 3.959467 0.273067l4.4032 0.034133h6.382933l11.9808-0.238933 15.735467-1.024c4.096-0.648533 6.894933-1.024 14.2336-1.877333 8.328533-0.989867 12.151467-1.501867 16.2816-2.389334 20.992-4.232533 38.570667-9.045333 54.1696-14.916266a334.813867 334.813867 0 0 0 77.653333-41.3696c3.003733-2.1504 5.666133-4.232533 11.127467-8.704l1.1264-0.955734c4.027733-3.2768 6.3488-5.154133 7.338667-5.802666l11.025066-9.898667c-0.546133 0.4096-0.6144 0.512-0.273066 0.136533l2.116266-2.048 1.706667-1.604266c1.536-1.399467 2.2528-2.116267 3.8912-3.959467l6.587733-6.690133 4.8128-5.5296c4.334933-4.949333 6.178133-7.099733 8.362667-9.864534 15.223467-18.944 26.692267-36.522667 35.089067-54.510933 3.413333-7.2704 6.656-14.779733 11.195733-25.873067 2.833067-6.826667 4.881067-13.585067 8.6016-27.5456l1.024-3.6864c5.3248-19.968 7.953067-44.032 7.7824-71.5776zM682.666667 145.066667a25.6 25.6 0 1 1 0 51.2A110.933333 110.933333 0 0 0 571.733333 307.2a25.6 25.6 0 1 1-51.2 0A162.133333 162.133333 0 0 1 682.666667 145.066667z m-307.2 153.6c-68.881067 0-128-29.559467-128-76.8S306.5856 145.066667 375.466667 145.066667s128 29.559467 128 76.8S444.347733 298.666667 375.466667 298.666667z m0-51.2c23.722667 0 45.636267-4.642133 60.962133-12.288 11.298133-5.666133 15.837867-11.025067 15.837867-13.312s-4.539733-7.645867-15.837867-13.312c-15.36-7.645867-37.205333-12.288-60.962133-12.288-23.722667 0-45.636267 4.642133-60.962134 12.288-11.298133 5.666133-15.837867 11.025067-15.837866 13.312s4.539733 7.645867 15.837866 13.312c15.36 7.645867 37.205333 12.288 60.962134 12.288z" p-id="4790"></path></svg>