<?xml version="1.0" standalone="no"?><!DOCTYPE svg PUBLIC "-//W3C//DTD SVG 1.1//EN" "http://www.w3.org/Graphics/SVG/1.1/DTD/svg11.dtd"><svg t="1583378281422" class="icon" viewBox="0 0 1024 1024" version="1.1" xmlns="http://www.w3.org/2000/svg" p-id="4003" xmlns:xlink="http://www.w3.org/1999/xlink" width="200" height="200"><defs><style type="text/css"></style></defs><path d="M850.8 338.3c0-54-49.9-97.7-111.4-97.7-59.8 0-108.5 41.4-111.2 93.3-19 17.5-30.8 41.2-30.8 67.3 0 54 49.9 97.7 111.4 97.7 59.8 0 108.5-41.4 111.2-93.3 19.1-17.5 30.8-41.2 30.8-67.3z" p-id="4004"></path><path d="M625.5 508.7c19.4 12 42.3 18.3 67.2 18.3 6.4 0 12.9-0.4 19.5-1.2 40.4-5 80.1-25.3 111.8-57 64.3-64.3 66.7-176.3 23.4-219.5-44.4-44.4-152.2-43.8-219.5 23.4-31.7 31.7-52 71.4-57 111.8-4.4 35.6 3.4 68.1 21.8 93.6l-75.2 75.2-82.3-82.3 57.4-57.4 0.6-0.6c8.4-8.4 8.4-22.1 0-30.5l-0.6-0.6-160.4-160.5c-8.8-8.8-22.9-8.8-31.7 0s-8.8 22.9 0 31.7l144.6 144.6-41.6 41.6-144.6-144.6c-8.8-8.8-22.9-8.8-31.7 0s-8.8 22.9 0 31.7L371.8 471l-41.6 41.6L185.6 368c-8.8-8.8-22.9-8.8-31.7 0s-8.8 22.9 0 31.7l159.8 159.8 1.2 1.2c8.4 8.4 22.1 8.4 30.5 0l58-58 82.3 82.3-263.6 263.7c-8.8 8.8-8.8 22.9 0 31.7s22.9 8.8 31.7 0l263.7-263.7 263.7 263.7c8.8 8.8 22.9 8.8 31.7 0s8.8-22.9 0-31.7L549.2 585l76.3-76.3zM615.4 390c3.8-30.6 19.5-61 44.2-85.7 28.7-28.7 67.8-40.8 100.7-40.8 23.9 0 44.4 6.4 55.5 17.4 22.1 22.1 27.5 105.2-23.4 156.2-24.7 24.7-55.1 40.4-85.7 44.2-28.4 3.6-53.5-3.8-70.4-20.8-17.1-17-24.5-42-20.9-70.5z" p-id="4005"></path></svg>